<svg width="168" height="101" viewBox="0 0 168 101" fill="none" xmlns="http://www.w3.org/2000/svg">
<path d="M20.0633 51.7944H8.75864L0 100.668H11.2688L20.0633 51.7944Z" fill="#00458F"/>
<path d="M39.7142 22.9356H28.4006L14.1913 100.668H25.4512L39.7142 22.9356Z" fill="#00458F"/>
<path d="M57.9128 1.9744L46.9309 2.15471L29.2253 100.668H40.1176L57.9128 1.9744Z" fill="#00458F"/>
<path d="M60.7278 1.90228L55.1248 33.592L64.1254 100.668H75.206L60.7278 1.90228Z" fill="#006BDF"/>
<path d="M75.2059 5.07575V11.9817H96.3719V98.5491C96.3719 99.2523 96.7932 100.668 99.1779 100.668H106.332V14.3798C106.475 13.1086 107.452 11.9817 108.851 11.9817H121.052C124.279 11.9817 125.821 10.5752 126.377 9.30404L129.739 1.9744H78.2898C76.6044 1.9744 75.2059 3.38082 75.2059 5.07575Z" fill="#006BDF"/>
<path d="M164.505 33.4117C165.903 32.7085 167.311 31.293 167.311 27.9122V12.5497C167.311 5.77897 161.842 0.279482 155.109 0H148.942C142.075 0 136.463 5.64374 136.463 12.5497V88.1181C136.463 95.024 142.075 100.668 148.942 100.668H155.109C161.842 100.388 167.311 94.8888 167.311 88.1181V52.164C167.311 48.3595 165.491 46.6645 162.407 46.6645H149.793L153.155 53.7147C153.155 53.7147 154.554 56.9603 156.804 56.9603H157.225V86.4322C157.225 89.3893 154.841 91.7874 151.9 91.7874C148.96 91.7874 146.575 89.3893 146.575 86.4322V14.2446C146.575 11.2875 148.96 8.88934 151.9 8.88934C154.841 8.88934 157.225 11.2875 157.225 14.2446V36.8015C159.888 35.6746 163.814 33.8444 164.514 33.4207L164.505 33.4117Z" fill="#006BDF"/>
</svg>
