<svg width="218" height="159" viewBox="0 0 218 159" fill="none" xmlns="http://www.w3.org/2000/svg">
<path d="M4.94183 145.158C6.72318 145.158 7.67707 146.297 8.02185 147.551L6.56229 148.057C6.33243 147.24 5.70034 146.619 4.76944 146.619C3.03405 146.619 1.68942 149.61 1.68942 151.715C1.68942 153.153 2.40196 153.993 3.63167 153.993C4.34421 153.993 4.87287 153.636 5.30959 153.188L5.70034 151.439H3.60868L3.94197 149.978H7.59662L6.74617 153.82C5.90721 154.879 4.81541 155.477 3.55122 155.477C1.42508 155.477 0 154.062 0 151.75C0 148.816 1.88479 145.158 4.96481 145.158H4.94183Z" fill="white"/>
<path d="M11.1134 148.068L10.0216 152.969C9.9871 153.107 9.96411 153.268 9.96411 153.372C9.96411 153.912 10.3434 154.154 10.895 154.154C11.5041 154.154 12.1017 153.648 12.4925 153.142L13.6073 148.068H15.1013L13.5038 155.293H12.0098L12.2397 154.338C11.711 154.925 10.9984 155.477 10.102 155.477C9.0447 155.477 8.36664 154.913 8.36664 153.981C8.36664 153.866 8.41261 153.579 8.43559 153.452L9.61933 148.068H11.1134Z" fill="white"/>
<path d="M20.997 148.068H22.4796L20.8821 155.293H19.3881L19.5949 154.361C19.0663 155.097 18.4342 155.465 17.7102 155.465C16.4 155.465 15.561 154.534 15.561 152.866C15.561 150.818 16.7218 147.884 18.8939 147.884C19.7099 147.884 20.4339 148.287 20.7787 149.069L21.0085 148.068H20.997ZM18.3882 154.154C18.9743 154.154 19.5375 153.694 19.8708 153.142L20.5258 150.208C20.3305 149.644 19.8133 149.207 19.1697 149.207C17.8825 149.207 17.124 151.301 17.124 152.635C17.124 153.602 17.6182 154.165 18.3997 154.165L18.3882 154.154Z" fill="white"/>
<path d="M22.6405 155.293L24.238 148.068H25.732L25.5137 149.058C26.0538 148.344 26.7434 147.907 27.7662 147.907L27.4214 149.391C27.3295 149.357 27.1341 149.334 26.9158 149.334C26.2607 149.334 25.6286 149.782 25.2149 150.369L24.1345 155.304H22.6405V155.293Z" fill="white"/>
<path d="M33.5815 145.319H35.0755L32.8689 155.293H31.3749L31.5818 154.361C31.0531 155.097 30.421 155.465 29.697 155.465C28.3868 155.465 27.5479 154.534 27.5479 152.866C27.5479 150.818 28.7086 147.884 30.8807 147.884C31.6967 147.884 32.4207 148.287 32.7655 149.069L33.5815 145.319ZM30.3635 154.154C30.9497 154.154 31.5128 153.694 31.8461 153.142L32.5012 150.208C32.3058 149.644 31.7886 149.207 31.145 149.207C29.8579 149.207 29.0994 151.301 29.0994 152.635C29.0994 153.602 29.5935 154.165 30.375 154.165L30.3635 154.154Z" fill="white"/>
<path d="M39.9829 155.293L40.8908 151.14L39.0864 145.319H40.8333L41.9711 149.587L44.9936 145.319H46.9014L42.5342 151.14L41.6263 155.293H39.9829Z" fill="white"/>
<path d="M48.2345 147.896C50.0274 147.896 51.0387 149.011 51.0387 150.783C51.0387 152.957 49.6136 155.477 47.3611 155.477C45.5797 155.477 44.5569 154.361 44.5569 152.589C44.5569 150.415 45.982 147.896 48.2345 147.896ZM48.1771 149.207C46.8899 149.207 46.0854 151.255 46.0854 152.566C46.0854 153.625 46.5911 154.154 47.43 154.154C48.7172 154.154 49.5217 152.106 49.5217 150.783C49.5217 149.725 49.016 149.195 48.1771 149.195V149.207Z" fill="white"/>
<path d="M54.6244 148.068L53.5326 152.969C53.4981 153.107 53.4752 153.268 53.4752 153.372C53.4752 153.912 53.8544 154.154 54.4061 154.154C55.0152 154.154 55.6128 153.648 56.0035 153.142L57.1183 148.068H58.6124L57.0149 155.293H55.5208L55.7507 154.338C55.222 154.925 54.5095 155.477 53.6131 155.477C52.5557 155.477 51.8777 154.913 51.8777 153.981C51.8777 153.866 51.9237 153.579 51.9466 153.452L53.1304 148.068H54.6244Z" fill="white"/>
<path d="M58.7848 155.293L60.3823 148.068H61.8763L61.6579 149.058C62.1981 148.344 62.8877 147.907 63.9105 147.907L63.5657 149.391C63.4738 149.357 63.2784 149.334 63.06 149.334C62.405 149.334 61.7729 149.782 61.3591 150.369L60.2788 155.304H58.7848V155.293Z" fill="white"/>
<path d="M72.6563 155.293L72.8172 148.126L69.7947 155.293H68.0593L68.0018 145.319H69.7487L69.5189 152.762L72.7138 145.319H74.0469L73.9435 152.762L77.0235 145.319H78.8279L74.3802 155.293H72.6449H72.6563Z" fill="white"/>
<path d="M81.2069 147.896C82.8159 147.896 83.8272 148.931 83.8272 150.679C83.8272 151.209 83.7123 151.818 83.6204 152.175H79.0348C78.9888 152.336 78.9773 152.532 78.9773 152.704C78.9773 153.463 79.506 154.257 80.7012 154.257C81.2529 154.257 81.862 154.004 82.2987 153.613L82.8044 154.591C82.1953 155.155 81.3448 155.488 80.5174 155.488C78.6785 155.488 77.5408 154.407 77.5408 152.555C77.5408 150.564 78.8969 147.907 81.2184 147.907L81.2069 147.896ZM82.4137 151.105C82.4596 150.944 82.4711 150.725 82.4711 150.553C82.4711 149.759 82.0114 149.103 81.0805 149.103C80.0692 149.103 79.3566 150.185 79.1957 151.105H82.4137Z" fill="white"/>
<path d="M90.0217 148.068H91.5042L89.9068 155.293H88.4127L88.6196 154.361C88.0909 155.097 87.4588 155.465 86.7348 155.465C85.4246 155.465 84.5857 154.534 84.5857 152.866C84.5857 150.818 85.7464 147.884 87.9185 147.884C88.7345 147.884 89.4586 148.287 89.8033 149.069L90.0332 148.068H90.0217ZM87.4129 154.154C87.999 154.154 88.5621 153.694 88.8954 153.142L89.5505 150.208C89.3551 149.644 88.838 149.207 88.1944 149.207C86.9072 149.207 86.1487 151.301 86.1487 152.635C86.1487 153.602 86.6429 154.165 87.4244 154.165L87.4129 154.154Z" fill="white"/>
<path d="M91.6652 155.293L93.8603 145.319H95.3543L93.1592 155.293H91.6652Z" fill="white"/>
<path d="M95.5612 153.613L96.5036 149.345H95.5612L95.8485 148.057H96.8024L97.2391 146.078H98.7217L98.285 148.057H99.4917L99.1929 149.345H97.9976L97.1127 153.291C97.1012 153.383 97.0667 153.51 97.0667 153.625C97.0667 153.958 97.2621 154.154 97.6299 154.154C97.8253 154.154 98.0321 154.062 98.1356 153.993L98.2275 155.178C97.9861 155.362 97.6414 155.477 97.1932 155.477C96.1358 155.477 95.4922 155.04 95.4922 154.142C95.4922 154.004 95.5037 153.809 95.5497 153.613H95.5612Z" fill="white"/>
<path d="M103.158 155.293L104.238 150.369C104.273 150.277 104.296 150.07 104.296 149.978C104.296 149.426 103.916 149.196 103.365 149.196C102.756 149.196 102.135 149.714 101.756 150.231L100.652 155.282H99.1583L101.353 145.308H102.847L102.031 149.012C102.56 148.425 103.273 147.873 104.169 147.873C105.249 147.873 105.904 148.46 105.904 149.369C105.904 149.484 105.859 149.748 105.824 149.898L104.64 155.282H103.158V155.293Z" fill="white"/>
<path d="M107.605 153.44C108.111 153.44 108.513 153.855 108.513 154.372C108.513 154.97 108.008 155.465 107.41 155.465C106.904 155.465 106.502 155.051 106.502 154.533C106.502 153.935 107.008 153.44 107.605 153.44Z" fill="white"/>
<path d="M118.707 145.158C120.489 145.158 121.443 146.297 121.787 147.551L120.328 148.057C120.098 147.24 119.466 146.619 118.535 146.619C116.8 146.619 115.455 149.61 115.455 151.715C115.455 153.153 116.167 153.993 117.397 153.993C118.11 153.993 118.638 153.636 119.075 153.188L119.466 151.439H117.374L117.707 149.978H121.362L120.512 153.82C119.673 154.879 118.581 155.477 117.317 155.477C115.191 155.477 113.766 154.062 113.766 151.75C113.766 148.816 115.65 145.158 118.73 145.158H118.707Z" fill="white"/>
<path d="M121.787 155.293L123.385 148.068H124.879L124.661 149.058C125.201 148.344 125.89 147.907 126.913 147.907L126.568 149.391C126.476 149.357 126.281 149.334 126.063 149.334C125.408 149.334 124.775 149.782 124.362 150.369L123.281 155.304H121.787V155.293Z" fill="white"/>
<path d="M130.372 147.896C132.165 147.896 133.177 149.011 133.177 150.783C133.177 152.957 131.751 155.477 129.499 155.477C127.718 155.477 126.695 154.361 126.695 152.589C126.695 150.415 128.12 147.896 130.372 147.896ZM130.315 149.207C129.028 149.207 128.223 151.255 128.223 152.566C128.223 153.625 128.729 154.154 129.568 154.154C130.855 154.154 131.66 152.106 131.66 150.783C131.66 149.725 131.154 149.195 130.315 149.195V149.207Z" fill="white"/>
<path d="M139.176 155.293L138.934 149.978L136.383 155.293H134.831L134.498 148.068H135.992L136.084 153.337L138.624 148.068H140.003L140.244 153.337L142.669 148.068H144.267L140.739 155.293H139.187H139.176Z" fill="white"/>
<path d="M149.002 155.293L149.91 151.14L148.105 145.319H149.852L150.99 149.587L154.013 145.319H155.92L151.553 151.14L150.645 155.293H149.002Z" fill="white"/>
<path d="M157.254 147.896C159.046 147.896 160.058 149.011 160.058 150.783C160.058 152.957 158.633 155.477 156.38 155.477C154.599 155.477 153.576 154.361 153.576 152.589C153.576 150.415 155.001 147.896 157.254 147.896ZM157.196 149.207C155.909 149.207 155.104 151.255 155.104 152.566C155.104 153.625 155.61 154.154 156.449 154.154C157.736 154.154 158.541 152.106 158.541 150.783C158.541 149.725 158.035 149.195 157.196 149.195V149.207Z" fill="white"/>
<path d="M163.643 148.068L162.552 152.969C162.517 153.107 162.494 153.268 162.494 153.372C162.494 153.912 162.873 154.154 163.425 154.154C164.034 154.154 164.632 153.648 165.023 153.142L166.137 148.068H167.631L166.034 155.293H164.54L164.77 154.338C164.241 154.925 163.528 155.477 162.632 155.477C161.575 155.477 160.897 154.913 160.897 153.981C160.897 153.866 160.943 153.579 160.966 153.452L162.149 148.068H163.643Z" fill="white"/>
<path d="M167.804 155.293L169.401 148.068H170.895L170.677 149.058C171.217 148.344 171.907 147.907 172.93 147.907L172.585 149.391C172.493 149.357 172.297 149.334 172.079 149.334C171.424 149.334 170.792 149.782 170.378 150.369L169.298 155.304H167.804V155.293Z" fill="white"/>
<path d="M175.642 155.293L177.837 145.319H179.492L177.607 153.832H181.055L180.745 155.293H175.63H175.642Z" fill="white"/>
<path d="M185.847 147.896C187.456 147.896 188.467 148.931 188.467 150.679C188.467 151.209 188.353 151.818 188.261 152.175H183.675C183.629 152.336 183.618 152.532 183.618 152.704C183.618 153.463 184.146 154.257 185.342 154.257C185.893 154.257 186.502 154.004 186.939 153.613L187.445 154.591C186.836 155.155 185.985 155.488 185.158 155.488C183.319 155.488 182.181 154.407 182.181 152.555C182.181 150.564 183.537 147.907 185.859 147.907L185.847 147.896ZM187.054 151.105C187.1 150.944 187.111 150.725 187.111 150.553C187.111 149.759 186.652 149.103 185.721 149.103C184.709 149.103 183.997 150.185 183.836 151.105H187.054Z" fill="white"/>
<path d="M189.341 156.098C189.72 156.65 190.444 156.961 191.237 156.961C192.088 156.961 192.777 156.478 193.076 155.12L193.306 154.165C192.812 154.879 192.122 155.27 191.375 155.27C190.168 155.27 189.237 154.476 189.237 152.727C189.237 150.726 190.341 147.884 192.536 147.884C193.248 147.884 194.087 148.321 194.421 149.069L194.639 148.068H196.122L194.582 155.04C194.03 157.525 192.697 158.226 191.26 158.226C190.111 158.226 189.123 157.927 188.467 157.168L189.329 156.11L189.341 156.098ZM194.168 150.22C193.949 149.633 193.386 149.207 192.754 149.207C191.513 149.207 190.777 151.151 190.777 152.463C190.777 153.452 191.272 153.958 192.065 153.958C192.628 153.958 193.214 153.51 193.559 152.969L194.168 150.22Z" fill="white"/>
<path d="M202.029 148.068H203.511L201.914 155.293H200.42L200.627 154.361C200.098 155.097 199.466 155.465 198.742 155.465C197.432 155.465 196.593 154.534 196.593 152.866C196.593 150.818 197.754 147.884 199.926 147.884C200.753 147.884 201.466 148.287 201.81 149.069L202.04 148.068H202.029ZM199.42 154.154C200.006 154.154 200.569 153.694 200.903 153.142L201.558 150.208C201.362 149.644 200.845 149.207 200.201 149.207C198.914 149.207 198.156 151.301 198.156 152.635C198.156 153.602 198.65 154.165 199.431 154.165L199.42 154.154Z" fill="white"/>
<path d="M207.718 147.896C208.798 147.896 209.568 148.333 209.993 148.954L209.051 149.932C208.786 149.449 208.304 149.218 207.775 149.218C206.373 149.218 205.523 151.025 205.523 152.463C205.523 153.613 206.178 154.165 207.063 154.165C207.58 154.165 208.016 153.912 208.327 153.555L208.913 154.637C208.407 155.132 207.729 155.488 206.833 155.488C205.132 155.488 203.994 154.407 203.994 152.555C203.994 150.311 205.488 147.907 207.718 147.907V147.896Z" fill="white"/>
<path d="M209.51 156.788C209.614 156.857 209.855 156.892 210.051 156.892C210.384 156.892 210.602 156.731 210.855 156.305L211.384 155.396L210.625 148.068H212.165L212.556 153.498L215.383 148.068H217.015L212.269 156.65C211.602 157.835 210.97 158.226 210.039 158.226C209.66 158.226 209.281 158.146 209.039 158.065L209.533 156.8L209.51 156.788Z" fill="white"/>
<path d="M216.762 153.44C217.268 153.44 217.67 153.855 217.67 154.372C217.67 154.97 217.164 155.465 216.567 155.465C216.061 155.465 215.659 155.051 215.659 154.533C215.659 153.935 216.165 153.44 216.762 153.44Z" fill="white"/>
<path d="M29.1454 66.0908H14.6532L3.42487 128.454H17.8711L29.1454 66.0908Z" fill="white"/>
<path d="M54.3372 29.2661H39.8335L21.6177 128.454H36.0524L54.3372 29.2661Z" fill="white"/>
<path d="M77.6672 2.51953L63.5887 2.74961L40.8908 128.454H54.8543L77.6672 2.51953Z" fill="white"/>
<path d="M81.2759 2.42725L74.093 42.8639L85.6316 128.454H99.8365L81.2759 2.42725Z" fill="white"/>
<path d="M99.8364 6.47692V15.289H126.971V125.751C126.971 126.648 127.511 128.454 130.568 128.454H139.739V18.3491C139.923 16.727 141.175 15.289 142.968 15.289H158.61C162.747 15.289 164.724 13.4944 165.436 11.8723L169.746 2.51953H103.79C101.629 2.51953 99.8364 4.31416 99.8364 6.47692Z" fill="white"/>
<path d="M214.314 42.634C216.107 41.7366 217.912 39.9305 217.912 35.6165V16.0136C217.912 7.37409 210.901 0.356625 202.27 0H194.363C185.56 0 178.365 7.20153 178.365 16.0136V112.44C178.365 121.253 185.56 128.454 194.363 128.454H202.27C210.901 128.097 217.912 121.08 217.912 112.44V66.5623C217.912 61.7076 215.579 59.5449 211.625 59.5449H195.455L199.765 68.541C199.765 68.541 201.558 72.6825 204.442 72.6825H204.982V110.289C204.982 114.063 201.925 117.123 198.156 117.123C194.386 117.123 191.329 114.063 191.329 110.289V18.1764C191.329 14.4031 194.386 11.343 198.156 11.343C201.925 11.343 204.982 14.4031 204.982 18.1764V46.9595C208.396 45.5215 213.429 43.1861 214.326 42.6455L214.314 42.634Z" fill="white"/>
</svg>
